<svg xmlns="http://www.w3.org/2000/svg" xmlns:xlink="http://www.w3.org/1999/xlink" width="245" zoomAndPan="magnify" viewBox="0 0 183.75 48.75" height="65" preserveAspectRatio="xMidYMid meet" version="1.0"><defs><g/><clipPath id="ecaa319d4e"><path d="M 22 20 L 27 20 L 27 25 L 22 25 Z M 22 20 " clip-rule="nonzero"/></clipPath><clipPath id="a19bfca328"><path d="M 20.507812 14.082031 L 28.410156 23.054688 L 19.4375 30.957031 L 11.535156 21.984375 Z M 20.507812 14.082031 " clip-rule="nonzero"/></clipPath><clipPath id="2671888b85"><path d="M 20.507812 14.082031 L 28.410156 23.054688 L 19.4375 30.957031 L 11.535156 21.984375 Z M 20.507812 14.082031 " clip-rule="nonzero"/></clipPath><clipPath id="6defcb682b"><path d="M 20.507812 14.082031 L 28.410156 23.054688 L 19.4375 30.957031 L 11.535156 21.984375 Z M 20.507812 14.082031 " clip-rule="nonzero"/></clipPath><clipPath id="21a75a78e9"><path d="M 18 16 L 23 16 L 23 21 L 18 21 Z M 18 16 " clip-rule="nonzero"/></clipPath><clipPath id="45db982f74"><path d="M 20.507812 14.082031 L 28.410156 23.054688 L 19.4375 30.957031 L 11.535156 21.984375 Z M 20.507812 14.082031 " clip-rule="nonzero"/></clipPath><clipPath id="28d2063a3f"><path d="M 20.507812 14.082031 L 28.410156 23.054688 L 19.4375 30.957031 L 11.535156 21.984375 Z M 20.507812 14.082031 " clip-rule="nonzero"/></clipPath><clipPath id="ffdec9d1fa"><path d="M 20.507812 14.082031 L 28.410156 23.054688 L 19.4375 30.957031 L 11.535156 21.984375 Z M 20.507812 14.082031 " clip-rule="nonzero"/></clipPath><clipPath id="d16b290e35"><path d="M 13 20 L 18 20 L 18 25 L 13 25 Z M 13 20 " clip-rule="nonzero"/></clipPath><clipPath id="4de464b150"><path d="M 20.507812 14.082031 L 28.410156 23.054688 L 19.4375 30.957031 L 11.535156 21.984375 Z M 20.507812 14.082031 " clip-rule="nonzero"/></clipPath><clipPath id="3ec676bef9"><path d="M 20.507812 14.082031 L 28.410156 23.054688 L 19.4375 30.957031 L 11.535156 21.984375 Z M 20.507812 14.082031 " clip-rule="nonzero"/></clipPath><clipPath id="319dd3345f"><path d="M 20.507812 14.082031 L 28.410156 23.054688 L 19.4375 30.957031 L 11.535156 21.984375 Z M 20.507812 14.082031 " clip-rule="nonzero"/></clipPath><clipPath id="26c31beae3"><path d="M 15 18 L 21 18 L 21 23 L 15 23 Z M 15 18 " clip-rule="nonzero"/></clipPath><clipPath id="d5a0b9188f"><path d="M 20.507812 14.082031 L 28.410156 23.054688 L 19.4375 30.957031 L 11.535156 21.984375 Z M 20.507812 14.082031 " clip-rule="nonzero"/></clipPath><clipPath id="366c688638"><path d="M 20.507812 14.082031 L 28.410156 23.054688 L 19.4375 30.957031 L 11.535156 21.984375 Z M 20.507812 14.082031 " clip-rule="nonzero"/></clipPath><clipPath id="0cea328052"><path d="M 20.507812 14.082031 L 28.410156 23.054688 L 19.4375 30.957031 L 11.535156 21.984375 Z M 20.507812 14.082031 " clip-rule="nonzero"/></clipPath><clipPath id="679ffa1eca"><path d="M 17 24 L 22 24 L 22 29 L 17 29 Z M 17 24 " clip-rule="nonzero"/></clipPath><clipPath id="e401bdf511"><path d="M 20.507812 14.082031 L 28.410156 23.054688 L 19.4375 30.957031 L 11.535156 21.984375 Z M 20.507812 14.082031 " clip-rule="nonzero"/></clipPath><clipPath id="cfef6880a3"><path d="M 20.507812 14.082031 L 28.410156 23.054688 L 19.4375 30.957031 L 11.535156 21.984375 Z M 20.507812 14.082031 " clip-rule="nonzero"/></clipPath><clipPath id="98e0422100"><path d="M 20.507812 14.082031 L 28.410156 23.054688 L 19.4375 30.957031 L 11.535156 21.984375 Z M 20.507812 14.082031 " clip-rule="nonzero"/></clipPath><clipPath id="527e237cc8"><path d="M 118.699219 0.292969 L 182.765625 0.292969 L 182.765625 24 L 118.699219 24 Z M 118.699219 0.292969 " clip-rule="nonzero"/></clipPath><clipPath id="7b9104e95c"><path d="M 127.667969 0.292969 L 173.542969 0.292969 C 175.917969 0.292969 178.199219 1.238281 179.882812 2.917969 C 181.5625 4.601562 182.507812 6.882812 182.507812 9.257812 L 182.507812 15.011719 C 182.507812 17.390625 181.5625 19.671875 179.882812 21.351562 C 178.199219 23.035156 175.917969 23.980469 173.542969 23.980469 L 127.667969 23.980469 C 125.289062 23.980469 123.007812 23.035156 121.328125 21.351562 C 119.644531 19.671875 118.699219 17.390625 118.699219 15.011719 L 118.699219 9.257812 C 118.699219 6.882812 119.644531 4.601562 121.328125 2.917969 C 123.007812 1.238281 125.289062 0.292969 127.667969 0.292969 " clip-rule="nonzero"/></clipPath></defs><g fill="#000000" fill-opacity="1"><g transform="translate(0.344387, 46.676464)"><g><path d="M 1.902344 0 L 16.121094 0 L 16.121094 -1.808594 L 4.054688 -1.808594 L 4.054688 -22.292969 L 1.902344 -22.292969 Z M 1.902344 0 "/></g></g></g><g fill="#000000" fill-opacity="1"><g transform="translate(17.241602, 46.676464)"><g><path d="M 2.773438 -19.363281 C 3.398438 -19.363281 3.992188 -19.769531 3.992188 -20.484375 C 3.992188 -21.203125 3.398438 -21.609375 2.773438 -21.609375 C 2.183594 -21.609375 1.558594 -21.203125 1.558594 -20.484375 C 1.558594 -19.769531 2.183594 -19.363281 2.773438 -19.363281 Z M 1.808594 0 L 3.742188 0 L 3.742188 -16.027344 L 1.808594 -16.027344 Z M 1.808594 0 "/></g></g></g><g fill="#000000" fill-opacity="1"><g transform="translate(22.884423, 46.676464)"><g><path d="M 1.558594 0 L 3.492188 0 L 3.492188 -10.601562 C 3.492188 -12.441406 5.332031 -14.6875 8.480469 -14.6875 C 11.535156 -14.6875 12.316406 -12.816406 12.316406 -10.445312 L 12.316406 0 L 14.28125 0 L 14.28125 -11.320312 C 14.28125 -14.59375 12.035156 -16.308594 9.386719 -16.308594 C 6.144531 -16.308594 4.519531 -14.78125 3.554688 -13.25 L 3.492188 -13.25 L 3.492188 -16.027344 L 1.558594 -16.027344 Z M 1.558594 0 "/></g></g></g><g fill="#000000" fill-opacity="1"><g transform="translate(38.690487, 46.676464)"><g><path d="M 1.558594 0 L 3.492188 0 L 3.492188 -5.675781 L 6.421875 -8.542969 L 12.535156 0 L 14.875 0 L 7.765625 -9.914062 L 14 -16.027344 L 11.503906 -16.027344 L 3.492188 -8.074219 L 3.492188 -22.292969 L 1.558594 -22.292969 Z M 1.558594 0 "/></g></g></g><g fill="#000000" fill-opacity="1"><g transform="translate(53.685997, 46.676464)"><g><path d="M 8.324219 0.375 C 12.191406 0.375 14.40625 -1.808594 15.121094 -4.800781 L 13.191406 -4.800781 C 12.816406 -3.335938 11.503906 -1.152344 8.292969 -1.152344 C 4.957031 -1.152344 2.679688 -3.585938 2.679688 -7.765625 L 15.339844 -7.765625 C 15.339844 -12.722656 13.066406 -16.308594 8.230469 -16.308594 C 3.710938 -16.308594 0.75 -13.097656 0.75 -7.949219 C 0.75 -2.960938 3.648438 0.375 8.324219 0.375 Z M 2.679688 -9.105469 C 2.742188 -12.222656 4.769531 -14.84375 8.230469 -14.84375 C 11.722656 -14.84375 13.40625 -12.066406 13.40625 -9.105469 Z M 2.679688 -9.105469 "/></g></g></g><g fill="#000000" fill-opacity="1"><g transform="translate(69.803826, 46.676464)"><g><path d="M 7.609375 0.375 C 10.539062 0.375 12.441406 -1.464844 13.28125 -3.398438 L 13.34375 -3.398438 L 13.34375 0 L 15.308594 0 L 15.308594 -22.292969 L 13.34375 -22.292969 L 13.34375 -12.472656 L 13.28125 -12.472656 C 12.441406 -14.53125 10.539062 -16.308594 7.609375 -16.308594 C 3.710938 -16.308594 0.75 -13.191406 0.75 -7.949219 C 0.75 -2.710938 3.710938 0.375 7.609375 0.375 Z M 8.105469 -1.152344 C 4.925781 -1.152344 2.679688 -3.679688 2.679688 -7.949219 C 2.679688 -12.253906 4.925781 -14.75 8.105469 -14.75 C 10.945312 -14.75 13.3125 -12.253906 13.3125 -7.949219 C 13.3125 -3.679688 10.945312 -1.152344 8.105469 -1.152344 Z M 8.105469 -1.152344 "/></g></g></g><g fill="#000000" fill-opacity="1"><g transform="translate(86.732224, 46.676464)"><g><path d="M 1.902344 0 L 4.054688 0 L 4.054688 -10.820312 L 16.652344 -10.820312 L 16.652344 0 L 18.800781 0 L 18.800781 -22.292969 L 16.652344 -22.292969 L 16.652344 -12.597656 L 4.054688 -12.597656 L 4.054688 -22.292969 L 1.902344 -22.292969 Z M 1.902344 0 "/></g></g></g><g fill="#000000" fill-opacity="1"><g transform="translate(107.526396, 46.676464)"><g><path d="M 5.863281 0.375 C 8.261719 0.375 10.289062 -0.5 11.503906 -2.402344 L 11.566406 -2.402344 C 11.566406 -0.59375 12.222656 0.25 14 0.25 C 14.4375 0.25 14.9375 0.1875 15.496094 0.03125 L 15.496094 -0.875 C 13.4375 -0.5 13.46875 -1.871094 13.46875 -2.992188 L 13.46875 -10.914062 C 13.46875 -14.964844 11.101562 -16.308594 7.796875 -16.308594 C 3.117188 -16.308594 1.558594 -13.75 1.402344 -11.351562 L 3.273438 -11.351562 C 3.429688 -13.53125 4.925781 -14.84375 7.796875 -14.84375 C 9.976562 -14.84375 11.535156 -13.84375 11.535156 -11.785156 C 11.535156 -9.417969 9.011719 -9.386719 6.703125 -8.980469 C 2.679688 -8.324219 0.6875 -6.984375 0.6875 -3.960938 C 0.6875 -1.339844 2.710938 0.375 5.863281 0.375 Z M 6.484375 -1.089844 C 4.023438 -1.089844 2.621094 -2.152344 2.621094 -4.335938 C 2.621094 -6.515625 4.519531 -7.390625 7.296875 -7.765625 C 9.355469 -8.042969 11.007812 -8.324219 11.535156 -9.167969 L 11.535156 -5.144531 C 11.535156 -3.398438 9.945312 -1.089844 6.484375 -1.089844 Z M 6.484375 -1.089844 "/></g></g></g><g fill="#000000" fill-opacity="1"><g transform="translate(123.394817, 46.676464)"><g><path d="M 5.082031 0 L 7.171875 0 L 11.101562 -13.625 L 11.164062 -13.625 L 15.152344 0 L 17.242188 0 L 22.167969 -16.027344 L 20.175781 -16.027344 L 16.089844 -2.433594 L 16.027344 -2.433594 L 12.191406 -16.027344 L 10.132812 -16.027344 L 6.296875 -2.433594 L 6.265625 -2.433594 L 2.152344 -16.027344 L 0.1875 -16.027344 Z M 5.082031 0 "/></g></g></g><g fill="#000000" fill-opacity="1"><g transform="translate(145.810117, 46.676464)"><g><path d="M 1.558594 0 L 3.492188 0 L 3.492188 -5.675781 L 6.421875 -8.542969 L 12.535156 0 L 14.875 0 L 7.765625 -9.914062 L 14 -16.027344 L 11.503906 -16.027344 L 3.492188 -8.074219 L 3.492188 -22.292969 L 1.558594 -22.292969 Z M 1.558594 0 "/></g></g></g><g clip-path="url(#ecaa319d4e)"><g clip-path="url(#a19bfca328)"><g clip-path="url(#2671888b85)"><g clip-path="url(#6defcb682b)"><path fill="#000000" d="M 26.300781 22.921875 C 26.285156 23.199219 26.214844 23.46875 26.089844 23.71875 C 25.964844 23.96875 25.800781 24.1875 25.589844 24.375 C 25.378906 24.558594 25.140625 24.695312 24.875 24.789062 C 24.609375 24.878906 24.335938 24.914062 24.058594 24.898438 C 23.777344 24.878906 23.511719 24.808594 23.261719 24.683594 C 23.007812 24.5625 22.792969 24.394531 22.605469 24.183594 C 22.421875 23.972656 22.28125 23.738281 22.191406 23.472656 C 22.101562 23.207031 22.066406 22.933594 22.082031 22.652344 C 22.101562 22.375 22.171875 22.109375 22.292969 21.855469 C 22.417969 21.605469 22.585938 21.386719 22.796875 21.203125 C 23.003906 21.015625 23.242188 20.878906 23.507812 20.789062 C 23.773438 20.695312 24.046875 20.660156 24.324219 20.679688 C 24.605469 20.695312 24.871094 20.765625 25.121094 20.890625 C 25.375 21.011719 25.59375 21.179688 25.777344 21.390625 C 25.964844 21.601562 26.101562 21.839844 26.191406 22.105469 C 26.28125 22.371094 26.320312 22.640625 26.300781 22.921875 Z M 26.300781 22.921875 " fill-opacity="1" fill-rule="nonzero"/></g></g></g></g><g clip-path="url(#21a75a78e9)"><g clip-path="url(#45db982f74)"><g clip-path="url(#28d2063a3f)"><g clip-path="url(#ffdec9d1fa)"><path fill="#000000" d="M 22.351562 18.433594 C 22.332031 18.714844 22.261719 18.980469 22.140625 19.230469 C 22.015625 19.484375 21.847656 19.703125 21.636719 19.886719 C 21.425781 20.074219 21.191406 20.210938 20.925781 20.300781 C 20.660156 20.390625 20.386719 20.429688 20.105469 20.410156 C 19.828125 20.394531 19.5625 20.324219 19.308594 20.199219 C 19.058594 20.074219 18.839844 19.910156 18.65625 19.699219 C 18.46875 19.488281 18.332031 19.25 18.242188 18.984375 C 18.152344 18.71875 18.113281 18.449219 18.132812 18.167969 C 18.148438 17.886719 18.21875 17.621094 18.34375 17.371094 C 18.46875 17.117188 18.632812 16.902344 18.84375 16.714844 C 19.054688 16.53125 19.292969 16.390625 19.558594 16.300781 C 19.824219 16.210938 20.09375 16.175781 20.375 16.191406 C 20.65625 16.210938 20.921875 16.28125 21.171875 16.402344 C 21.421875 16.527344 21.640625 16.695312 21.828125 16.90625 C 22.011719 17.113281 22.152344 17.351562 22.242188 17.617188 C 22.332031 17.882812 22.367188 18.15625 22.351562 18.433594 Z M 22.351562 18.433594 " fill-opacity="1" fill-rule="nonzero"/></g></g></g></g><g clip-path="url(#d16b290e35)"><g clip-path="url(#4de464b150)"><g clip-path="url(#3ec676bef9)"><g clip-path="url(#319dd3345f)"><path fill="#000000" d="M 17.863281 22.386719 C 17.847656 22.664062 17.777344 22.929688 17.652344 23.183594 C 17.527344 23.433594 17.363281 23.652344 17.152344 23.839844 C 16.941406 24.023438 16.703125 24.160156 16.4375 24.253906 C 16.171875 24.34375 15.902344 24.378906 15.621094 24.363281 C 15.339844 24.34375 15.074219 24.273438 14.824219 24.148438 C 14.574219 24.027344 14.355469 23.859375 14.167969 23.648438 C 13.984375 23.4375 13.847656 23.199219 13.753906 22.9375 C 13.664062 22.671875 13.628906 22.398438 13.644531 22.117188 C 13.664062 21.839844 13.734375 21.574219 13.859375 21.320312 C 13.980469 21.070312 14.148438 20.851562 14.359375 20.667969 C 14.570312 20.480469 14.804688 20.34375 15.070312 20.253906 C 15.335938 20.160156 15.609375 20.125 15.890625 20.144531 C 16.167969 20.160156 16.433594 20.230469 16.6875 20.355469 C 16.9375 20.476562 17.15625 20.644531 17.339844 20.855469 C 17.527344 21.066406 17.664062 21.304688 17.753906 21.570312 C 17.84375 21.832031 17.882812 22.105469 17.863281 22.386719 Z M 17.863281 22.386719 " fill-opacity="1" fill-rule="nonzero"/></g></g></g></g><g clip-path="url(#26c31beae3)"><g clip-path="url(#d5a0b9188f)"><g clip-path="url(#366c688638)"><g clip-path="url(#0cea328052)"><path fill="#000000" d="M 18.136719 18.167969 L 20.109375 20.410156 C 19.570312 20.375 19.015625 20.546875 18.578125 20.933594 C 18.136719 21.320312 17.898438 21.847656 17.863281 22.390625 L 15.886719 20.144531 L 15.890625 20.144531 C 16.429688 20.175781 16.980469 20.003906 17.417969 19.621094 C 17.855469 19.234375 18.097656 18.710938 18.132812 18.171875 Z M 18.136719 18.167969 " fill-opacity="1" fill-rule="nonzero"/></g></g></g></g><g clip-path="url(#679ffa1eca)"><g clip-path="url(#e401bdf511)"><g clip-path="url(#cfef6880a3)"><g clip-path="url(#98e0422100)"><path fill="#000000" d="M 21.101562 28.324219 C 20.890625 28.507812 20.65625 28.648438 20.390625 28.738281 C 20.125 28.828125 19.851562 28.867188 19.570312 28.847656 C 19.292969 28.828125 19.027344 28.757812 18.773438 28.636719 C 18.523438 28.511719 18.304688 28.34375 18.121094 28.136719 C 17.933594 27.925781 17.796875 27.6875 17.707031 27.421875 C 17.617188 27.15625 17.578125 26.882812 17.597656 26.605469 C 17.613281 26.324219 17.683594 26.058594 17.808594 25.808594 C 17.933594 25.554688 18.097656 25.335938 18.308594 25.152344 C 18.519531 24.96875 18.757812 24.828125 19.023438 24.738281 C 19.289062 24.648438 19.558594 24.613281 19.839844 24.628906 C 20.121094 24.648438 20.386719 24.71875 20.636719 24.839844 C 20.886719 24.964844 21.105469 25.132812 21.292969 25.339844 C 21.476562 25.550781 21.613281 25.789062 21.707031 26.054688 C 21.796875 26.320312 21.832031 26.59375 21.816406 26.871094 C 21.796875 27.152344 21.726562 27.417969 21.601562 27.667969 C 21.480469 27.921875 21.3125 28.140625 21.101562 28.324219 Z M 21.101562 28.324219 " fill-opacity="1" fill-rule="nonzero"/><path fill="#000000" d="M 21.816406 26.871094 C 21.796875 27.152344 21.726562 27.417969 21.601562 27.667969 C 21.480469 27.921875 21.3125 28.140625 21.101562 28.324219 C 20.890625 28.507812 20.65625 28.648438 20.390625 28.738281 C 20.125 28.828125 19.851562 28.867188 19.570312 28.847656 C 19.292969 28.828125 19.027344 28.757812 18.773438 28.636719 C 18.523438 28.511719 18.304688 28.34375 18.121094 28.136719 C 17.933594 27.925781 17.796875 27.6875 17.707031 27.421875 C 17.617188 27.15625 17.578125 26.882812 17.597656 26.605469 C 17.613281 26.324219 17.683594 26.058594 17.808594 25.808594 C 17.933594 25.554688 18.097656 25.335938 18.308594 25.152344 C 18.519531 24.96875 18.757812 24.828125 19.023438 24.738281 C 19.289062 24.648438 19.558594 24.613281 19.839844 24.628906 C 20.121094 24.648438 20.386719 24.71875 20.636719 24.839844 C 20.886719 24.964844 21.105469 25.132812 21.292969 25.339844 C 21.476562 25.550781 21.613281 25.789062 21.707031 26.054688 C 21.796875 26.320312 21.832031 26.59375 21.816406 26.871094 Z M 21.816406 26.871094 " fill-opacity="1" fill-rule="nonzero"/></g></g></g></g><g clip-path="url(#527e237cc8)"><g clip-path="url(#7b9104e95c)"><path fill="#5271ff" d="M 118.699219 0.292969 L 182.460938 0.292969 L 182.460938 24.089844 L 118.699219 24.089844 Z M 118.699219 0.292969 " fill-opacity="1" fill-rule="nonzero"/></g></g><g fill="#ffffff" fill-opacity="1"><g transform="translate(124.254897, 19.646069)"><g><path d="M 3.859375 0 L 1.671875 0 L 1.671875 -20.703125 L 4.421875 -20.703125 L 4.421875 -12.109375 C 4.953125 -12.671875 5.566406 -13.109375 6.265625 -13.421875 C 6.960938 -13.734375 7.773438 -13.890625 8.703125 -13.890625 C 9.648438 -13.890625 10.523438 -13.707031 11.328125 -13.34375 C 12.128906 -12.976562 12.820312 -12.472656 13.40625 -11.828125 C 14 -11.179688 14.457031 -10.421875 14.78125 -9.546875 C 15.113281 -8.679688 15.28125 -7.757812 15.28125 -6.78125 C 15.28125 -5.789062 15.113281 -4.859375 14.78125 -3.984375 C 14.457031 -3.117188 14 -2.363281 13.40625 -1.71875 C 12.820312 -1.082031 12.128906 -0.578125 11.328125 -0.203125 C 10.523438 0.160156 9.648438 0.34375 8.703125 0.34375 C 7.816406 0.34375 7.019531 0.1875 6.3125 -0.125 C 5.601562 -0.4375 4.972656 -0.867188 4.421875 -1.421875 Z M 8.484375 -11.40625 C 7.929688 -11.40625 7.410156 -11.320312 6.921875 -11.15625 C 6.429688 -11 6 -10.734375 5.625 -10.359375 C 5.257812 -9.992188 4.972656 -9.515625 4.765625 -8.921875 C 4.554688 -8.335938 4.453125 -7.625 4.453125 -6.78125 C 4.453125 -5.988281 4.554688 -5.296875 4.765625 -4.703125 C 4.972656 -4.117188 5.257812 -3.632812 5.625 -3.25 C 6 -2.863281 6.429688 -2.570312 6.921875 -2.375 C 7.410156 -2.1875 7.929688 -2.09375 8.484375 -2.09375 C 9.023438 -2.09375 9.539062 -2.21875 10.03125 -2.46875 C 10.53125 -2.71875 10.957031 -3.050781 11.3125 -3.46875 C 11.675781 -3.894531 11.960938 -4.390625 12.171875 -4.953125 C 12.378906 -5.523438 12.484375 -6.132812 12.484375 -6.78125 C 12.484375 -7.414062 12.378906 -8.015625 12.171875 -8.578125 C 11.960938 -9.148438 11.675781 -9.644531 11.3125 -10.0625 C 10.957031 -10.476562 10.53125 -10.804688 10.03125 -11.046875 C 9.539062 -11.285156 9.023438 -11.40625 8.484375 -11.40625 Z M 8.484375 -11.40625 "/></g></g></g><g fill="#ffffff" fill-opacity="1"><g transform="translate(140.791435, 19.646069)"><g><path d="M 8.03125 0.34375 C 7.039062 0.34375 6.113281 0.160156 5.25 -0.203125 C 4.394531 -0.578125 3.644531 -1.082031 3 -1.71875 C 2.363281 -2.363281 1.859375 -3.117188 1.484375 -3.984375 C 1.117188 -4.859375 0.9375 -5.789062 0.9375 -6.78125 C 0.9375 -7.757812 1.109375 -8.679688 1.453125 -9.546875 C 1.804688 -10.421875 2.28125 -11.179688 2.875 -11.828125 C 3.46875 -12.472656 4.160156 -12.976562 4.953125 -13.34375 C 5.753906 -13.707031 6.609375 -13.890625 7.515625 -13.890625 C 8.441406 -13.890625 9.296875 -13.726562 10.078125 -13.40625 C 10.867188 -13.09375 11.550781 -12.59375 12.125 -11.90625 C 12.695312 -11.226562 13.144531 -10.363281 13.46875 -9.3125 C 13.789062 -8.257812 13.953125 -7.007812 13.953125 -5.5625 L 3.859375 -5.5625 C 3.992188 -5.070312 4.203125 -4.613281 4.484375 -4.1875 C 4.765625 -3.757812 5.097656 -3.390625 5.484375 -3.078125 C 5.867188 -2.765625 6.300781 -2.519531 6.78125 -2.34375 C 7.269531 -2.175781 7.78125 -2.09375 8.3125 -2.09375 C 9.03125 -2.09375 9.695312 -2.222656 10.3125 -2.484375 C 10.925781 -2.753906 11.445312 -3.109375 11.875 -3.546875 L 13.578125 -1.84375 C 12.921875 -1.175781 12.113281 -0.644531 11.15625 -0.25 C 10.207031 0.144531 9.164062 0.34375 8.03125 0.34375 Z M 7.515625 -11.40625 C 7.078125 -11.40625 6.664062 -11.316406 6.28125 -11.140625 C 5.894531 -10.972656 5.535156 -10.738281 5.203125 -10.4375 C 4.867188 -10.132812 4.582031 -9.773438 4.34375 -9.359375 C 4.113281 -8.941406 3.941406 -8.488281 3.828125 -8 L 11 -8 C 10.96875 -8.445312 10.863281 -8.878906 10.6875 -9.296875 C 10.519531 -9.710938 10.285156 -10.078125 9.984375 -10.390625 C 9.679688 -10.703125 9.328125 -10.945312 8.921875 -11.125 C 8.515625 -11.3125 8.046875 -11.40625 7.515625 -11.40625 Z M 7.515625 -11.40625 "/></g></g></g><g fill="#ffffff" fill-opacity="1"><g transform="translate(155.824641, 19.646069)"><g><path d="M 8.96875 -0.03125 C 8.1875 0.238281 7.414062 0.398438 6.65625 0.453125 C 5.90625 0.503906 5.226562 0.394531 4.625 0.125 C 4.019531 -0.144531 3.523438 -0.625 3.140625 -1.3125 C 2.765625 -2.007812 2.578125 -2.976562 2.578125 -4.21875 L 2.578125 -11.109375 L 0.59375 -11.109375 L 0.59375 -13.015625 L 2.578125 -13.578125 L 2.578125 -17.21875 L 5.328125 -17.21875 L 5.328125 -13.578125 L 9.015625 -13.578125 L 9.015625 -11.109375 L 5.328125 -11.109375 L 5.328125 -3.796875 C 5.328125 -3.347656 5.378906 -2.988281 5.484375 -2.71875 C 5.585938 -2.457031 5.757812 -2.257812 6 -2.125 C 6.25 -1.988281 6.570312 -1.921875 6.96875 -1.921875 C 7.375 -1.921875 7.859375 -1.960938 8.421875 -2.046875 Z M 8.96875 -0.03125 "/></g></g></g><g fill="#ffffff" fill-opacity="1"><g transform="translate(165.525311, 19.646069)"><g><path d="M 14.46875 -13.578125 L 14.46875 0 L 12.140625 0 L 11.71875 -1.5625 C 11.238281 -0.9375 10.628906 -0.460938 9.890625 -0.140625 C 9.160156 0.179688 8.414062 0.34375 7.65625 0.34375 C 6.707031 0.34375 5.820312 0.160156 5 -0.203125 C 4.175781 -0.578125 3.457031 -1.082031 2.84375 -1.71875 C 2.226562 -2.363281 1.738281 -3.117188 1.375 -3.984375 C 1.019531 -4.859375 0.84375 -5.789062 0.84375 -6.78125 C 0.84375 -7.757812 1.019531 -8.679688 1.375 -9.546875 C 1.738281 -10.421875 2.226562 -11.179688 2.84375 -11.828125 C 3.457031 -12.472656 4.175781 -12.976562 5 -13.34375 C 5.820312 -13.707031 6.707031 -13.890625 7.65625 -13.890625 C 8.414062 -13.890625 9.144531 -13.742188 9.84375 -13.453125 C 10.539062 -13.160156 11.164062 -12.703125 11.71875 -12.078125 L 12.140625 -13.578125 Z M 7.65625 -2.09375 C 8.207031 -2.09375 8.726562 -2.21875 9.21875 -2.46875 C 9.707031 -2.71875 10.128906 -3.050781 10.484375 -3.46875 C 10.847656 -3.894531 11.132812 -4.390625 11.34375 -4.953125 C 11.550781 -5.523438 11.65625 -6.132812 11.65625 -6.78125 C 11.65625 -7.414062 11.550781 -8.015625 11.34375 -8.578125 C 11.132812 -9.148438 10.847656 -9.648438 10.484375 -10.078125 C 10.128906 -10.503906 9.707031 -10.835938 9.21875 -11.078125 C 8.726562 -11.328125 8.207031 -11.453125 7.65625 -11.453125 C 7.101562 -11.453125 6.582031 -11.328125 6.09375 -11.078125 C 5.601562 -10.835938 5.175781 -10.503906 4.8125 -10.078125 C 4.457031 -9.648438 4.175781 -9.148438 3.96875 -8.578125 C 3.757812 -8.015625 3.65625 -7.414062 3.65625 -6.78125 C 3.65625 -6.132812 3.757812 -5.523438 3.96875 -4.953125 C 4.175781 -4.390625 4.457031 -3.894531 4.8125 -3.46875 C 5.175781 -3.050781 5.601562 -2.71875 6.09375 -2.46875 C 6.582031 -2.21875 7.101562 -2.09375 7.65625 -2.09375 Z M 7.65625 -2.09375 "/></g></g></g></svg>