<svg xmlns="http://www.w3.org/2000/svg" xmlns:xlink="http://www.w3.org/1999/xlink" width="245" zoomAndPan="magnify" viewBox="0 0 183.75 48.75" height="65" preserveAspectRatio="xMidYMid meet" version="1.0"><defs><g/><clipPath id="c1062aa6f7"><path d="M 0.34375 9 L 17 9 L 17 36 L 0.34375 36 Z M 0.34375 9 " clip-rule="nonzero"/></clipPath><clipPath id="755dfa981b"><path d="M 167 9 L 183.15625 9 L 183.15625 36 L 167 36 Z M 167 9 " clip-rule="nonzero"/></clipPath><clipPath id="e150cf03fd"><path d="M 23 6 L 28 6 L 28 11 L 23 11 Z M 23 6 " clip-rule="nonzero"/></clipPath><clipPath id="19f4ff71e6"><path d="M 21.636719 0 L 29.535156 8.972656 L 20.566406 16.875 L 12.664062 7.902344 Z M 21.636719 0 " clip-rule="nonzero"/></clipPath><clipPath id="caa3d53413"><path d="M 21.636719 0 L 29.535156 8.972656 L 20.566406 16.875 L 12.664062 7.902344 Z M 21.636719 0 " clip-rule="nonzero"/></clipPath><clipPath id="7ec752331b"><path d="M 21.636719 0 L 29.535156 8.972656 L 20.566406 16.875 L 12.664062 7.902344 Z M 21.636719 0 " clip-rule="nonzero"/></clipPath><clipPath id="10ae11cfc7"><path d="M 19 2 L 24 2 L 24 7 L 19 7 Z M 19 2 " clip-rule="nonzero"/></clipPath><clipPath id="4db9d0438f"><path d="M 21.636719 0 L 29.535156 8.972656 L 20.566406 16.875 L 12.664062 7.902344 Z M 21.636719 0 " clip-rule="nonzero"/></clipPath><clipPath id="ba5ee4763f"><path d="M 21.636719 0 L 29.535156 8.972656 L 20.566406 16.875 L 12.664062 7.902344 Z M 21.636719 0 " clip-rule="nonzero"/></clipPath><clipPath id="3fc174411d"><path d="M 21.636719 0 L 29.535156 8.972656 L 20.566406 16.875 L 12.664062 7.902344 Z M 21.636719 0 " clip-rule="nonzero"/></clipPath><clipPath id="abfd319703"><path d="M 14 6 L 19 6 L 19 11 L 14 11 Z M 14 6 " clip-rule="nonzero"/></clipPath><clipPath id="c34b539287"><path d="M 21.636719 0 L 29.535156 8.972656 L 20.566406 16.875 L 12.664062 7.902344 Z M 21.636719 0 " clip-rule="nonzero"/></clipPath><clipPath id="0d9f78eae4"><path d="M 21.636719 0 L 29.535156 8.972656 L 20.566406 16.875 L 12.664062 7.902344 Z M 21.636719 0 " clip-rule="nonzero"/></clipPath><clipPath id="721abbf729"><path d="M 21.636719 0 L 29.535156 8.972656 L 20.566406 16.875 L 12.664062 7.902344 Z M 21.636719 0 " clip-rule="nonzero"/></clipPath><clipPath id="2cc960646d"><path d="M 17 4 L 22 4 L 22 9 L 17 9 Z M 17 4 " clip-rule="nonzero"/></clipPath><clipPath id="0837ae3cf9"><path d="M 21.636719 0 L 29.535156 8.972656 L 20.566406 16.875 L 12.664062 7.902344 Z M 21.636719 0 " clip-rule="nonzero"/></clipPath><clipPath id="1e34cda251"><path d="M 21.636719 0 L 29.535156 8.972656 L 20.566406 16.875 L 12.664062 7.902344 Z M 21.636719 0 " clip-rule="nonzero"/></clipPath><clipPath id="94983e8bf9"><path d="M 21.636719 0 L 29.535156 8.972656 L 20.566406 16.875 L 12.664062 7.902344 Z M 21.636719 0 " clip-rule="nonzero"/></clipPath><clipPath id="83a8389d3e"><path d="M 18 10 L 23 10 L 23 15 L 18 15 Z M 18 10 " clip-rule="nonzero"/></clipPath><clipPath id="7500ba5aa1"><path d="M 21.636719 0 L 29.535156 8.972656 L 20.566406 16.875 L 12.664062 7.902344 Z M 21.636719 0 " clip-rule="nonzero"/></clipPath><clipPath id="b22c047b03"><path d="M 21.636719 0 L 29.535156 8.972656 L 20.566406 16.875 L 12.664062 7.902344 Z M 21.636719 0 " clip-rule="nonzero"/></clipPath><clipPath id="36cc575bcf"><path d="M 21.636719 0 L 29.535156 8.972656 L 20.566406 16.875 L 12.664062 7.902344 Z M 21.636719 0 " clip-rule="nonzero"/></clipPath></defs><g clip-path="url(#c1062aa6f7)"><g fill="#000000" fill-opacity="1"><g transform="translate(-1.557962, 35.212599)"><g><path d="M 2.191406 0 L 18.558594 0 L 18.558594 -2.082031 L 4.667969 -2.082031 L 4.667969 -25.667969 L 2.191406 -25.667969 Z M 2.191406 0 "/></g></g></g></g><g fill="#000000" fill-opacity="1"><g transform="translate(17.895637, 35.212599)"><g><path d="M 3.195312 -22.292969 C 3.914062 -22.292969 4.59375 -22.757812 4.59375 -23.585938 C 4.59375 -24.410156 3.914062 -24.878906 3.195312 -24.878906 C 2.511719 -24.878906 1.792969 -24.410156 1.792969 -23.585938 C 1.792969 -22.757812 2.511719 -22.292969 3.195312 -22.292969 Z M 2.082031 0 L 4.308594 0 L 4.308594 -18.453125 L 2.082031 -18.453125 Z M 2.082031 0 "/></g></g></g><g fill="#000000" fill-opacity="1"><g transform="translate(24.392162, 35.212599)"><g><path d="M 1.792969 0 L 4.019531 0 L 4.019531 -12.207031 C 4.019531 -14.324219 6.136719 -16.90625 9.765625 -16.90625 C 13.28125 -16.90625 14.179688 -14.753906 14.179688 -12.027344 L 14.179688 0 L 16.441406 0 L 16.441406 -13.03125 C 16.441406 -16.800781 13.855469 -18.773438 10.804688 -18.773438 C 7.070312 -18.773438 5.207031 -17.015625 4.09375 -15.257812 L 4.019531 -15.257812 L 4.019531 -18.453125 L 1.792969 -18.453125 Z M 1.792969 0 "/></g></g></g><g fill="#000000" fill-opacity="1"><g transform="translate(42.58953, 35.212599)"><g><path d="M 1.792969 0 L 4.019531 0 L 4.019531 -6.535156 L 7.394531 -9.835938 L 14.429688 0 L 17.125 0 L 8.9375 -11.414062 L 16.117188 -18.453125 L 13.246094 -18.453125 L 4.019531 -9.296875 L 4.019531 -25.667969 L 1.792969 -25.667969 Z M 1.792969 0 "/></g></g></g><g fill="#000000" fill-opacity="1"><g transform="translate(59.853715, 35.212599)"><g><path d="M 9.585938 0.429688 C 14.035156 0.429688 16.585938 -2.082031 17.410156 -5.527344 L 15.183594 -5.527344 C 14.753906 -3.839844 13.246094 -1.328125 9.550781 -1.328125 C 5.707031 -1.328125 3.085938 -4.128906 3.085938 -8.9375 L 17.660156 -8.9375 C 17.660156 -14.644531 15.042969 -18.773438 9.476562 -18.773438 C 4.273438 -18.773438 0.863281 -15.078125 0.863281 -9.152344 C 0.863281 -3.410156 4.199219 0.429688 9.585938 0.429688 Z M 3.085938 -10.480469 C 3.160156 -14.070312 5.492188 -17.085938 9.476562 -17.085938 C 13.496094 -17.085938 15.4375 -13.894531 15.4375 -10.480469 Z M 3.085938 -10.480469 "/></g></g></g><g fill="#000000" fill-opacity="1"><g transform="translate(78.410015, 35.212599)"><g><path d="M 8.757812 0.429688 C 12.132812 0.429688 14.324219 -1.6875 15.292969 -3.914062 L 15.363281 -3.914062 L 15.363281 0 L 17.625 0 L 17.625 -25.667969 L 15.363281 -25.667969 L 15.363281 -14.359375 L 15.292969 -14.359375 C 14.324219 -16.730469 12.132812 -18.773438 8.757812 -18.773438 C 4.273438 -18.773438 0.863281 -15.183594 0.863281 -9.152344 C 0.863281 -3.125 4.273438 0.429688 8.757812 0.429688 Z M 9.332031 -1.328125 C 5.671875 -1.328125 3.085938 -4.234375 3.085938 -9.152344 C 3.085938 -14.109375 5.671875 -16.980469 9.332031 -16.980469 C 12.601562 -16.980469 15.328125 -14.109375 15.328125 -9.152344 C 15.328125 -4.234375 12.601562 -1.328125 9.332031 -1.328125 Z M 9.332031 -1.328125 "/></g></g></g><g fill="#000000" fill-opacity="1"><g transform="translate(97.899514, 35.212599)"><g><path d="M 2.191406 0 L 4.667969 0 L 4.667969 -12.457031 L 19.167969 -12.457031 L 19.167969 0 L 21.648438 0 L 21.648438 -25.667969 L 19.167969 -25.667969 L 19.167969 -14.503906 L 4.667969 -14.503906 L 4.667969 -25.667969 L 2.191406 -25.667969 Z M 2.191406 0 "/></g></g></g><g fill="#000000" fill-opacity="1"><g transform="translate(121.839643, 35.212599)"><g><path d="M 6.75 0.429688 C 9.511719 0.429688 11.847656 -0.574219 13.246094 -2.765625 L 13.316406 -2.765625 C 13.316406 -0.683594 14.070312 0.289062 16.117188 0.289062 C 16.621094 0.289062 17.195312 0.214844 17.839844 0.0351562 L 17.839844 -1.003906 C 15.472656 -0.574219 15.507812 -2.152344 15.507812 -3.445312 L 15.507812 -12.5625 C 15.507812 -17.230469 12.78125 -18.773438 8.972656 -18.773438 C 3.589844 -18.773438 1.792969 -15.832031 1.617188 -13.066406 L 3.769531 -13.066406 C 3.949219 -15.578125 5.671875 -17.085938 8.972656 -17.085938 C 11.488281 -17.085938 13.28125 -15.9375 13.28125 -13.570312 C 13.28125 -10.839844 10.375 -10.804688 7.71875 -10.339844 C 3.085938 -9.585938 0.789062 -8.042969 0.789062 -4.558594 C 0.789062 -1.542969 3.125 0.429688 6.75 0.429688 Z M 7.46875 -1.257812 C 4.632812 -1.257812 3.015625 -2.476562 3.015625 -4.988281 C 3.015625 -7.503906 5.207031 -8.507812 8.398438 -8.9375 C 10.769531 -9.261719 12.671875 -9.585938 13.28125 -10.554688 L 13.28125 -5.921875 C 13.28125 -3.914062 11.453125 -1.257812 7.46875 -1.257812 Z M 7.46875 -1.257812 "/></g></g></g><g fill="#000000" fill-opacity="1"><g transform="translate(140.108801, 35.212599)"><g><path d="M 5.851562 0 L 8.257812 0 L 12.78125 -15.6875 L 12.851562 -15.6875 L 17.445312 0 L 19.851562 0 L 25.523438 -18.453125 L 23.226562 -18.453125 L 18.523438 -2.800781 L 18.453125 -2.800781 L 14.035156 -18.453125 L 11.667969 -18.453125 L 7.25 -2.800781 L 7.214844 -2.800781 L 2.476562 -18.453125 L 0.214844 -18.453125 Z M 5.851562 0 "/></g></g></g><g clip-path="url(#755dfa981b)"><g fill="#000000" fill-opacity="1"><g transform="translate(165.915318, 35.212599)"><g><path d="M 1.792969 0 L 4.019531 0 L 4.019531 -6.535156 L 7.394531 -9.835938 L 14.429688 0 L 17.125 0 L 8.9375 -11.414062 L 16.117188 -18.453125 L 13.246094 -18.453125 L 4.019531 -9.296875 L 4.019531 -25.667969 L 1.792969 -25.667969 Z M 1.792969 0 "/></g></g></g></g><g clip-path="url(#e150cf03fd)"><g clip-path="url(#19f4ff71e6)"><g clip-path="url(#caa3d53413)"><g clip-path="url(#7ec752331b)"><path fill="#000000" d="M 27.429688 8.839844 C 27.410156 9.121094 27.339844 9.386719 27.214844 9.636719 C 27.09375 9.886719 26.925781 10.105469 26.714844 10.292969 C 26.503906 10.476562 26.265625 10.617188 26.003906 10.707031 C 25.738281 10.796875 25.464844 10.832031 25.183594 10.816406 C 24.90625 10.796875 24.640625 10.726562 24.386719 10.601562 C 24.136719 10.480469 23.917969 10.3125 23.734375 10.101562 C 23.546875 9.890625 23.410156 9.65625 23.320312 9.390625 C 23.226562 9.125 23.191406 8.851562 23.210938 8.570312 C 23.226562 8.292969 23.296875 8.027344 23.421875 7.773438 C 23.542969 7.523438 23.710938 7.304688 23.921875 7.121094 C 24.132812 6.933594 24.371094 6.796875 24.636719 6.707031 C 24.898438 6.617188 25.171875 6.578125 25.453125 6.597656 C 25.730469 6.613281 25.996094 6.683594 26.25 6.808594 C 26.5 6.933594 26.71875 7.097656 26.90625 7.308594 C 27.089844 7.519531 27.226562 7.757812 27.320312 8.023438 C 27.410156 8.289062 27.445312 8.558594 27.429688 8.839844 Z M 27.429688 8.839844 " fill-opacity="1" fill-rule="nonzero"/></g></g></g></g><g clip-path="url(#10ae11cfc7)"><g clip-path="url(#4db9d0438f)"><g clip-path="url(#ba5ee4763f)"><g clip-path="url(#3fc174411d)"><path fill="#000000" d="M 23.476562 4.355469 C 23.460938 4.632812 23.386719 4.898438 23.265625 5.152344 C 23.140625 5.402344 22.976562 5.621094 22.765625 5.804688 C 22.554688 5.992188 22.316406 6.128906 22.050781 6.21875 C 21.785156 6.308594 21.511719 6.347656 21.234375 6.328125 C 20.953125 6.3125 20.6875 6.242188 20.4375 6.117188 C 20.183594 5.992188 19.96875 5.828125 19.78125 5.617188 C 19.597656 5.40625 19.457031 5.167969 19.367188 4.902344 C 19.277344 4.636719 19.242188 4.367188 19.257812 4.085938 C 19.277344 3.804688 19.347656 3.539062 19.46875 3.289062 C 19.59375 3.039062 19.761719 2.820312 19.972656 2.632812 C 20.179688 2.449219 20.417969 2.3125 20.683594 2.21875 C 20.949219 2.128906 21.222656 2.09375 21.5 2.109375 C 21.78125 2.128906 22.046875 2.199219 22.296875 2.324219 C 22.550781 2.445312 22.769531 2.613281 22.953125 2.824219 C 23.140625 3.035156 23.277344 3.269531 23.367188 3.535156 C 23.457031 3.800781 23.496094 4.074219 23.476562 4.355469 Z M 23.476562 4.355469 " fill-opacity="1" fill-rule="nonzero"/></g></g></g></g><g clip-path="url(#abfd319703)"><g clip-path="url(#c34b539287)"><g clip-path="url(#0d9f78eae4)"><g clip-path="url(#721abbf729)"><path fill="#000000" d="M 18.992188 8.304688 C 18.972656 8.585938 18.902344 8.851562 18.777344 9.101562 C 18.65625 9.351562 18.488281 9.570312 18.277344 9.757812 C 18.066406 9.941406 17.832031 10.078125 17.566406 10.171875 C 17.300781 10.261719 17.027344 10.296875 16.746094 10.28125 C 16.46875 10.261719 16.203125 10.191406 15.949219 10.066406 C 15.699219 9.945312 15.480469 9.777344 15.296875 9.566406 C 15.109375 9.355469 14.972656 9.121094 14.882812 8.855469 C 14.792969 8.589844 14.753906 8.316406 14.773438 8.035156 C 14.789062 7.757812 14.859375 7.492188 14.984375 7.238281 C 15.109375 6.988281 15.273438 6.769531 15.484375 6.585938 C 15.695312 6.398438 15.933594 6.261719 16.199219 6.171875 C 16.464844 6.082031 16.734375 6.042969 17.015625 6.0625 C 17.296875 6.078125 17.5625 6.148438 17.8125 6.273438 C 18.0625 6.398438 18.28125 6.5625 18.46875 6.773438 C 18.652344 6.984375 18.789062 7.222656 18.882812 7.488281 C 18.972656 7.753906 19.007812 8.023438 18.992188 8.304688 Z M 18.992188 8.304688 " fill-opacity="1" fill-rule="nonzero"/></g></g></g></g><g clip-path="url(#2cc960646d)"><g clip-path="url(#0837ae3cf9)"><g clip-path="url(#1e34cda251)"><g clip-path="url(#94983e8bf9)"><path fill="#000000" d="M 19.261719 4.085938 L 21.238281 6.328125 C 20.695312 6.292969 20.140625 6.464844 19.703125 6.851562 C 19.265625 7.238281 19.023438 7.765625 18.992188 8.308594 L 17.015625 6.0625 L 17.019531 6.0625 C 17.558594 6.09375 18.109375 5.921875 18.546875 5.539062 C 18.984375 5.152344 19.222656 4.628906 19.257812 4.089844 Z M 19.261719 4.085938 " fill-opacity="1" fill-rule="nonzero"/></g></g></g></g><g clip-path="url(#83a8389d3e)"><g clip-path="url(#7500ba5aa1)"><g clip-path="url(#b22c047b03)"><g clip-path="url(#36cc575bcf)"><path fill="#000000" d="M 22.230469 14.242188 C 22.019531 14.429688 21.78125 14.566406 21.515625 14.65625 C 21.25 14.746094 20.976562 14.785156 20.699219 14.765625 C 20.417969 14.75 20.152344 14.675781 19.902344 14.554688 C 19.648438 14.429688 19.429688 14.265625 19.246094 14.054688 C 19.0625 13.84375 18.921875 13.605469 18.832031 13.339844 C 18.742188 13.074219 18.707031 12.800781 18.722656 12.523438 C 18.742188 12.242188 18.8125 11.976562 18.933594 11.726562 C 19.058594 11.472656 19.226562 11.257812 19.4375 11.070312 C 19.644531 10.886719 19.882812 10.746094 20.148438 10.65625 C 20.414062 10.566406 20.6875 10.53125 20.964844 10.546875 C 21.246094 10.566406 21.511719 10.636719 21.761719 10.757812 C 22.015625 10.882812 22.234375 11.050781 22.417969 11.261719 C 22.605469 11.46875 22.742188 11.707031 22.832031 11.972656 C 22.921875 12.238281 22.960938 12.511719 22.941406 12.789062 C 22.925781 13.070312 22.851562 13.335938 22.730469 13.585938 C 22.605469 13.839844 22.441406 14.058594 22.230469 14.242188 Z M 22.230469 14.242188 " fill-opacity="1" fill-rule="nonzero"/><path fill="#000000" d="M 22.941406 12.789062 C 22.925781 13.070312 22.851562 13.335938 22.730469 13.585938 C 22.605469 13.839844 22.441406 14.058594 22.230469 14.242188 C 22.019531 14.429688 21.78125 14.566406 21.515625 14.65625 C 21.25 14.746094 20.976562 14.785156 20.699219 14.765625 C 20.417969 14.75 20.152344 14.675781 19.902344 14.554688 C 19.648438 14.429688 19.429688 14.265625 19.246094 14.054688 C 19.0625 13.84375 18.921875 13.605469 18.832031 13.339844 C 18.742188 13.074219 18.707031 12.800781 18.722656 12.523438 C 18.742188 12.242188 18.8125 11.976562 18.933594 11.726562 C 19.058594 11.472656 19.226562 11.257812 19.4375 11.070312 C 19.644531 10.886719 19.882812 10.746094 20.148438 10.65625 C 20.414062 10.566406 20.6875 10.53125 20.964844 10.546875 C 21.246094 10.566406 21.511719 10.636719 21.761719 10.757812 C 22.015625 10.882812 22.234375 11.050781 22.417969 11.261719 C 22.605469 11.46875 22.742188 11.707031 22.832031 11.972656 C 22.921875 12.238281 22.960938 12.511719 22.941406 12.789062 Z M 22.941406 12.789062 " fill-opacity="1" fill-rule="nonzero"/></g></g></g></g></svg>